<?xml version="1.0" standalone="no"?>
<!DOCTYPE svg PUBLIC "-//W3C//DTD SVG 20010904//EN"
 "http://www.w3.org/TR/2001/REC-SVG-20010904/DTD/svg10.dtd">
<svg version="1.0" xmlns="http://www.w3.org/2000/svg"
 width="507.000000pt" height="242.000000pt" viewBox="0 0 507.000000 242.000000"
 preserveAspectRatio="xMidYMid meet">

<g transform="translate(0.000000,242.000000) scale(0.100000,-0.100000)"
fill="#000000" stroke="none">
<path d="M760 2069 c-382 -107 -563 -236 -577 -412 -16 -204 211 -454 685
-754 46 -29 90 -53 97 -53 12 0 75 105 75 124 0 2 -52 31 -115 65 -315 165
-525 323 -621 468 -86 129 -71 219 53 333 99 90 350 206 570 263 16 4 16 5 -2
5 -11 1 -85 -17 -165 -39z"/>
<path d="M828 1407 c7 -8 43 -35 80 -60 108 -73 254 -200 314 -274 136 -166
153 -279 57 -387 -112 -128 -368 -225 -727 -275 -73 -10 -134 -20 -136 -22 -6
-6 14 -133 22 -141 4 -4 41 -1 82 8 341 67 656 202 787 336 23 24 54 68 70 98
23 46 28 67 28 130 0 67 -4 82 -35 140 -72 133 -237 275 -499 430 -30 17 -49
25 -43 17z"/>
<path d="M1590 560 c0 -20 7 -20 1624 -20 1384 0 1625 2 1629 14 3 8 3 17 0
20 -4 3 -737 6 -1630 6 -1616 0 -1623 0 -1623 -20z"/>
</g>
</svg>
